<?xml version="1.0"?>
<svg xmlns="http://www.w3.org/2000/svg" xmlns:xlink="http://www.w3.org/1999/xlink" version="1.1" id="Capa_1" x="0px" y="0px" width="512px" height="512px" viewBox="0 0 437.452 437.453" style="enable-background:new 0 0 437.452 437.453;" xml:space="preserve"><g><g>
	<g>
		<path d="M201.472,228.647c-19.446-6.487-26.886-16.967-26.698-28.038c0-16.417,13.094-28.817,33.641-30.388    c-1.1-0.078-2.192-0.167-3.312-0.167c-26.882,0-48.674,21.792-48.674,48.67c0,14.919,6.729,28.26,17.304,37.188l3.909-15.629    c5.328,3.242,16.398,6.869,24.976,6.869c8.77,0,12.405-2.854,12.405-7.639C215.007,234.55,212.151,232.266,201.472,228.647z" data-original="#000000" class="active-path" data-old_color="#000000" fill="#F5F5F5"/>
		<path d="M237.182,182.183l-3.282,13.287c-4.199-2.318-12.407-5.348-20.219-5.348c-7.049,0-11.062,2.841-11.062,7.434    c0,4.577,3.619,6.861,15.076,10.858c17.726,6.111,24.979,15.248,25.163,28.789c0,8.384-3.182,15.638-9.325,20.976    c12.255-8.841,20.249-23.199,20.249-39.453C253.765,204.148,247.333,191.104,237.182,182.183z" data-original="#000000" class="active-path" data-old_color="#000000" fill="#F5F5F5"/>
		<path d="M410.442,189.807l-0.26,0.134v-14.775c0-30.348-24.602-54.954-54.954-54.954H54.952C24.604,120.212,0,144.818,0,175.166    v87.12c0,30.345,24.604,54.954,54.952,54.954h300.276c30.353,0,54.954-24.609,54.954-54.954v-44.098    c0.292,1.065,0.572,2.107,0.873,3.206c4.208,15.492,13.89,24.87,21.62,20.942c7.727-3.923,5.888-17.264-4.128-29.817    L410.442,189.807z M205.09,281.529c-34.682,0-62.802-28.119-62.802-62.804c0-34.687,28.12-62.807,62.802-62.807    c34.684,0,62.804,28.12,62.804,62.807C267.895,253.41,239.774,281.529,205.09,281.529z M428.901,234.903    c-1.684,0.857-5.09-2.452-7.603-7.414c-2.517-4.961-3.174-9.67-1.486-10.527c1.683-0.857,5.089,2.453,7.61,7.422    C429.931,229.336,430.604,234.038,428.901,234.903z" data-original="#000000" class="active-path" data-old_color="#000000" fill="#F5F5F5"/>
	</g>
</g></g> </svg>
