<svg width="339" height="105" viewBox="0 0 339 105" fill="none" xmlns="http://www.w3.org/2000/svg">
<path d="M35.7852 104.728C20.7132 104.728 8.90519 99.448 0.361188 88.888L13.6092 75.64C19.3692 83.032 26.9052 86.728 36.2172 86.728C45.8172 86.728 50.6172 82.504 50.6172 74.056C50.6172 70.6 49.7532 67.912 48.0252 65.992C46.2972 64.072 43.6092 62.728 39.9612 61.96L30.7452 60.232C21.4332 58.504 14.5692 55.288 10.1532 50.584C5.83319 45.784 3.67319 39.16 3.67319 30.712C3.67319 20.92 6.55319 13.48 12.3132 8.392C18.0732 3.304 26.5212 0.759995 37.6572 0.759995C51.8652 0.759995 62.6652 5.368 70.0572 14.584L56.8092 27.832C54.3132 24.76 51.4812 22.504 48.3132 21.064C45.2412 19.528 41.5932 18.76 37.3692 18.76C32.7612 18.76 29.4012 19.624 27.2892 21.352C25.2732 23.08 24.2652 25.864 24.2652 29.704C24.2652 33.064 25.0332 35.608 26.5692 37.336C28.2012 39.064 30.7932 40.312 34.3452 41.08L43.5612 42.952C48.4572 44.008 52.6332 45.304 56.0892 46.84C59.6412 48.28 62.5212 50.152 64.7292 52.456C67.0332 54.76 68.6652 57.496 69.6252 60.664C70.6812 63.832 71.2092 67.528 71.2092 71.752C71.2092 82.504 68.1852 90.712 62.1372 96.376C56.0892 101.944 47.3052 104.728 35.7852 104.728Z" fill="#E43137"/>
<path d="M140.425 61.096H107.017V103H86.4248V2.488H107.017V43.24H140.425V2.488H161.017V103H140.425V61.096Z" fill="#2A63D1"/>
<path d="M180.644 103V2.488H224.132C233.156 2.488 240.02 5.368 244.724 11.128C249.428 16.888 251.78 24.568 251.78 34.168C251.78 43.768 249.428 51.448 244.724 57.208C240.02 62.968 233.156 65.848 224.132 65.848H201.236V103H180.644ZM201.236 47.848H221.54C224.324 47.848 226.484 47.128 228.02 45.688C229.652 44.248 230.468 41.848 230.468 38.488V29.848C230.468 26.488 229.652 24.088 228.02 22.648C226.484 21.208 224.324 20.488 221.54 20.488H201.236V47.848Z" fill="#F4AE03"/>
<path d="M286.876 103H266.284V2.488H309.772C318.796 2.488 325.66 5.32 330.364 10.984C335.068 16.648 337.42 24.232 337.42 33.736C337.42 41.128 336.028 47.368 333.244 52.456C330.46 57.544 326.332 61.096 320.86 63.112L338.428 103H316.108L300.556 64.984H286.876V103ZM307.18 47.848C309.964 47.848 312.124 47.176 313.66 45.832C315.292 44.392 316.108 41.944 316.108 38.488V29.848C316.108 26.392 315.292 23.992 313.66 22.648C312.124 21.208 309.964 20.488 307.18 20.488H286.876V47.848H307.18Z" fill="#85B716"/>
</svg>
